HIERARCHY
ROOT Hips
{
	OFFSET 0.000000 0.000000 0.000000
	CHANNELS 6 Xposition Yposition Zposition Zrotation Yrotation Xrotation 
	JOINT LHipJoint
	{
		OFFSET 0.000000 0.000000 0.000000
		CHANNELS 3 Zrotation Yrotation Xrotation
		JOINT LeftUpLeg
		{
			OFFSET 1.363060 -1.794630 0.839290
			CHANNELS 3 Zrotation Yrotation Xrotation
			JOINT LeftLeg
			{
				OFFSET 2.448110 -6.726130 0.000000
				CHANNELS 3 Zrotation Yrotation Xrotation
				JOINT LeftFoot
				{
					OFFSET 2.562200 -7.039590 0.000000
					CHANNELS 3 Zrotation Yrotation Xrotation
					JOINT LeftToeBase
					{
						OFFSET 0.157640 -0.433110 2.322550
						CHANNELS 3 Zrotation Yrotation Xrotation
						End Site
						{
							OFFSET 0.000000 0.000000 0.000000
						}
					}
				}
			}
		}
	}
	JOINT RHipJoint
	{
		OFFSET 0.000000 0.000000 0.000000
		CHANNELS 3 Zrotation Yrotation Xrotation
		JOINT RightUpLeg
		{
			OFFSET -1.305520 -1.794630 0.839290
			CHANNELS 3 Zrotation Yrotation Xrotation
			JOINT RightLeg
			{
				OFFSET -2.542530 -6.985550 0.000000
				CHANNELS 3 Zrotation Yrotation Xrotation
				JOINT RightFoot
				{
					OFFSET -2.568260 -7.056230 0.000000
					CHANNELS 3 Zrotation Yrotation Xrotation
					JOINT RightToeBase
					{
						OFFSET -0.164730 -0.452590 2.363150
						CHANNELS 3 Zrotation Yrotation Xrotation
						End Site
						{
							OFFSET 0.000000 0.000000 0.000000
						}
					}
				}
			}
		}
	}
	JOINT LowerBack
	{
		OFFSET 0.000000 0.000000 0.000000
		CHANNELS 3 Zrotation Yrotation Xrotation
		JOINT Spine
		{
			OFFSET 0.028270 2.035590 -0.193380
			CHANNELS 3 Zrotation Yrotation Xrotation
			JOINT Spine1
			{
				OFFSET 0.056720 2.048850 -0.042750
				CHANNELS 3 Zrotation Yrotation Xrotation
				JOINT Neck
				{
					OFFSET 0.000000 0.000000 0.000000
					CHANNELS 3 Zrotation Yrotation Xrotation
					JOINT Neck1
					{
						OFFSET -0.054170 1.746240 0.172020
						CHANNELS 3 Zrotation Yrotation Xrotation
						JOINT Head
						{
							OFFSET 0.104070 1.761360 -0.123970
							CHANNELS 3 Zrotation Yrotation Xrotation
							End Site
							{
								OFFSET 0.000000 0.000000 0.000000
							}
						}
					}
				}
				JOINT LeftShoulder
				{
					OFFSET 0.000000 0.000000 0.000000
					CHANNELS 3 Zrotation Yrotation Xrotation
					JOINT LeftArm
					{
						OFFSET 3.362410 1.200890 -0.311210
						CHANNELS 3 Zrotation Yrotation Xrotation
						JOINT LeftForeArm
						{
							OFFSET 4.983000 -0.000000 -0.000000
							CHANNELS 3 Zrotation Yrotation Xrotation
							JOINT LeftHand
							{
								OFFSET 3.483560 -0.000000 -0.000000
								CHANNELS 3 Zrotation Yrotation Xrotation
								JOINT LeftFingerBase
								{
									OFFSET 0.000000 0.000000 0.000000
									CHANNELS 3 Zrotation Yrotation Xrotation
									JOINT LeftHandIndex1
									{
										OFFSET 0.715260 -0.000000 -0.000000
										CHANNELS 3 Zrotation Yrotation Xrotation
										End Site
										{
											OFFSET 0.000000 0.000000 0.000000
										}
									}
								}
								JOINT LThumb
								{
									OFFSET 0.000000 0.000000 0.000000
									CHANNELS 3 Zrotation Yrotation Xrotation
									End Site
									{
										OFFSET 0.000000 0.000000 0.000000
									}
								}
							}
						}
					}
				}
				JOINT RightShoulder
				{
					OFFSET 0.000000 0.000000 0.000000
					CHANNELS 3 Zrotation Yrotation Xrotation
					JOINT RightArm
					{
						OFFSET -3.136600 1.374050 -0.404650
						CHANNELS 3 Zrotation Yrotation Xrotation
						JOINT RightForeArm
						{
							OFFSET -5.241900 -0.000000 -0.000000
							CHANNELS 3 Zrotation Yrotation Xrotation
							JOINT RightHand
							{
								OFFSET -3.444170 -0.000000 -0.000000
								CHANNELS 3 Zrotation Yrotation Xrotation
								JOINT RightFingerBase
								{
									OFFSET 0.000000 0.000000 0.000000
									CHANNELS 3 Zrotation Yrotation Xrotation
									JOINT RightHandIndex1
									{
										OFFSET -0.622530 -0.000000 -0.000000
										CHANNELS 3 Zrotation Yrotation Xrotation
										End Site
										{
											OFFSET 0.000000 0.000000 0.000000
										}
									}
								}
								JOINT RThumb
								{
									OFFSET 0.000000 0.000000 0.000000
									CHANNELS 3 Zrotation Yrotation Xrotation
									End Site
									{
										OFFSET 0.000000 0.000000 0.000000
									}
								}
							}
						}
					}
				}
			}
		}
	}
}
MOTION
Frames: 8
Frame Time: 0.008333
-2.544037 17.657068 0.406305 -7.259131 78.042122 2.034574 3.921766 1.062826 -1.057503 -17.147472 -22.725458 -2.154586 -2.926241 6.087664 16.218540 -3.826080 25.603728 -22.213547 0.802100 -5.716000 -15.962500 -11.918312 -0.823703 -1.241849 28.996208 36.742190 3.347865 3.417150 -2.582725 7.762510 3.767824 -31.543585 -12.268078 -0.642000 5.126100 -14.268500 1.942119 -2.241817 2.124558 1.811994 -2.579214 -4.313602 -1.750907 -1.831902 -1.285198 4.818250 6.894873 -18.389453 3.226002 8.459558 17.983047 -0.739000 4.573400 16.622700 4.049034 -2.278669 -0.268927 -78.884130 -33.307744 33.400185 40.339758 -44.681458 -19.555386 0.693252 -1.595672 -57.048551 40.395769 59.756804 37.380200 -7.125000 0.000000 0.000000 -141.560700 -81.805500 146.950500 -3.666788 1.168441 -1.401820 81.367334 13.698555 70.369811 -99.623188 59.955085 -68.167492 0.843672 -0.133683 -36.972983 -28.074488 9.341825 -5.415400 7.125000 0.000000 0.000000 -1.175500 -18.636200 -0.738400 
-2.549486 17.659644 0.404422 -7.388876 77.466852 2.101678 3.940452 1.042155 -1.108476 -16.924009 -21.525125 -2.824475 -2.879804 6.146723 16.357546 -3.751574 25.126544 -21.620101 0.811300 -5.748100 -16.055300 -11.953963 -0.775596 -1.212465 28.959312 37.289643 3.464984 3.445556 -2.352452 7.144081 3.768316 -31.656754 -11.854118 -0.630400 5.080300 -14.137700 1.943279 -2.351667 2.266246 1.801984 -2.715648 -4.284867 -1.811428 -1.908914 -1.280763 4.972094 7.204432 -18.261730 3.312440 8.842891 17.977627 -0.657700 4.752900 16.596800 4.066504 -2.315084 -0.225540 -78.122949 -35.264159 31.976033 39.240429 -43.887270 -18.723348 0.690797 -1.602048 -57.513375 36.332274 59.385996 33.402100 -7.125000 0.000000 0.000000 -128.130800 -82.259200 134.502200 -3.669913 1.176913 -1.392778 81.589428 13.878256 71.322494 -99.458900 59.975139 -67.996468 0.849567 -0.140660 -36.848296 -28.225769 9.537964 -5.559300 7.125000 0.000000 0.000000 -1.267800 -18.389100 -0.803300 
-2.554935 17.662715 0.403233 -7.468474 76.844400 2.240304 3.955695 1.017211 -1.162035 -16.711825 -20.312360 -3.465275 -2.835395 6.191014 16.470204 -3.633459 24.509549 -21.176946 0.771400 -5.608200 -15.651700 -11.994323 -0.717566 -1.170878 28.906786 37.958118 3.425422 3.459447 -2.236801 6.771755 3.778548 -31.816913 -11.522005 -0.654700 5.175500 -14.409800 2.013290 -2.395242 2.446463 1.755165 -2.755258 -4.272467 -1.995837 -1.939882 -1.348231 5.107357 7.400669 -18.189008 3.422909 9.062443 18.004034 -0.571400 4.867400 16.603300 4.069246 -2.353769 -0.194580 -77.372093 -37.076019 30.748333 38.072515 -43.020711 -17.867606 0.724638 -1.657997 -57.810625 37.203545 60.108631 34.450800 -7.125000 0.000000 0.000000 -132.746400 -81.691500 139.174100 -3.685414 1.197028 -1.391250 81.891663 13.987577 72.084057 -99.366843 59.983422 -67.883981 0.854391 -0.148274 -36.771353 -28.311371 9.648216 -5.643000 7.125000 0.000000 0.000000 -1.318800 -18.245300 -0.839800 
-2.559690 17.666183 0.398379 -7.046298 76.198535 2.884967 3.973226 0.974956 -1.234358 -16.637610 -18.719631 -4.220399 -2.775359 6.242765 16.609947 -3.457292 23.625218 -20.554632 0.773500 -5.615700 -15.673400 -12.021384 -0.669841 -1.118036 28.692290 38.718193 3.259542 3.459934 -2.217734 6.610532 3.795732 -31.971184 -11.368625 -0.675900 5.256800 -14.642500 1.934689 -2.419861 2.554491 1.707266 -2.776872 -4.234037 -2.104461 -1.963310 -1.296720 5.198386 7.551942 -18.186936 3.502122 9.226776 17.985201 -0.510000 4.948200 16.586300 4.071333 -2.387617 -0.159888 -76.674429 -38.802364 29.577401 36.858640 -42.087530 -16.989219 0.745204 -1.711467 -57.967084 37.262053 60.509101 34.641700 -7.125000 0.000000 0.000000 -133.832600 -81.369800 140.409700 -3.703427 1.206684 -1.387790 82.182770 14.222037 72.742495 -99.261258 59.999331 -67.765222 0.856033 -0.154547 -36.945832 -28.238707 9.775939 -5.698100 7.125000 0.000000 0.000000 -1.254000 -18.099900 -0.802500 
-2.565833 17.667867 0.392038 -6.657292 75.568095 3.483928 3.995055 0.938306 -1.306279 -16.586762 -16.699022 -5.134361 -2.685985 6.316436 16.817186 -3.237198 22.457349 -19.614767 0.826900 -5.801700 -16.210000 -12.037625 -0.623422 -1.060366 28.446280 39.472965 3.057530 3.456157 -2.231596 6.525839 3.806916 -32.069354 -11.368859 -0.655500 5.178400 -14.418100 1.792203 -2.461659 2.710982 1.695162 -2.826775 -4.205291 -2.070015 -1.998784 -1.306514 5.260483 7.735023 -18.081822 3.503544 9.460379 17.909810 -0.494600 5.046100 16.511100 4.083056 -2.430534 -0.121081 -75.992266 -40.398153 28.401116 35.476185 -40.996115 -16.012763 0.764227 -1.787959 -57.902270 38.617493 60.933297 36.093900 -7.125000 0.000000 0.000000 -138.332100 -80.975100 144.705200 -3.703310 1.214069 -1.379343 82.392228 14.373344 73.374004 -99.189008 60.013200 -67.684177 0.855304 -0.161846 -37.003513 -28.060001 9.935538 -5.743000 7.125000 0.000000 0.000000 -1.111600 -17.933500 -0.715400 
-2.569301 17.666678 0.388967 -6.658351 74.935494 3.687472 4.016879 0.915930 -1.364321 -16.479840 -14.931046 -5.934141 -2.593947 6.406235 17.076018 -3.042578 21.407785 -18.886498 0.821400 -5.782900 -16.155800 -12.066541 -0.566623 -1.008619 28.343176 40.202904 2.906009 3.455214 -2.230310 6.416037 3.818832 -32.203586 -11.252190 -0.658600 5.190400 -14.452400 1.735447 -2.496584 2.906410 1.695119 -2.866375 -4.192799 -2.040137 -2.026533 -1.397898 5.350807 7.952753 -17.897326 3.475035 9.744365 17.836148 -0.498100 5.166900 16.429100 4.100930 -2.478668 -0.083775 -75.292390 -41.892849 27.303806 33.956705 -39.730722 -14.939688 0.715182 -1.823706 -57.497140 34.077172 60.069879 31.589900 -7.125000 0.000000 0.000000 -123.838700 -81.655500 131.095800 -3.694854 1.224654 -1.370182 82.577656 14.381591 73.967679 -99.222358 60.015448 -67.695903 0.853720 -0.169187 -36.871863 -27.869779 9.995382 -5.730300 7.125000 0.000000 0.000000 -0.970400 -17.883700 -0.625600 
-2.569400 17.666777 0.387282 -6.668734 74.323056 3.865376 4.037945 0.892175 -1.416768 -16.393891 -13.524303 -6.626016 -2.510566 6.509834 17.364157 -2.895426 20.606694 -18.394135 0.806900 -5.732900 -16.011200 -12.096648 -0.513948 -0.963753 28.270846 40.871023 2.846483 3.458131 -2.177603 6.203933 3.833132 -32.365103 -11.014424 -0.685800 5.294400 -14.750200 1.648764 -2.528208 3.087247 1.698028 -2.904470 -4.181979 -1.977780 -2.052435 -1.474161 5.398477 8.131203 -17.787776 3.515146 9.983675 17.825413 -0.449900 5.271200 16.401800 4.105201 -2.513527 -0.066293 -74.528331 -42.753932 26.520245 32.834661 -38.774964 -14.193543 0.716455 -1.883637 -57.008280 34.181024 60.459642 31.814500 -7.125000 0.000000 0.000000 -125.420900 -81.374200 132.803000 -3.688617 1.236789 -1.362102 82.750021 14.419446 74.497033 -99.248508 60.018850 -67.707999 0.848189 -0.170890 -36.790580 -27.593530 9.828775 -5.575400 7.125000 0.000000 0.000000 -0.786200 -18.105000 -0.503000 
-2.570688 17.668461 0.385499 -6.857381 73.682483 3.850376 4.063302 0.874567 -1.466075 -16.265451 -12.132681 -7.332219 -2.424994 6.616986 17.660448 -2.775719 19.900903 -17.884923 0.838100 -5.839800 -16.320300 -12.126569 -0.457481 -0.921864 28.256699 41.530939 2.866281 3.464583 -2.072715 5.877800 3.836731 -32.491053 -10.752417 -0.701200 5.352600 -14.916900 1.700959 -2.569061 3.320959 1.679831 -2.946578 -4.182612 -2.076040 -2.078879 -1.613037 5.629190 8.306127 -17.700513 3.377569 10.164947 17.826923 -0.552000 5.355300 16.442800 4.113565 -2.568083 -0.055987 -73.596655 -43.522611 25.797741 31.647423 -37.722906 -13.416009 0.698603 -1.946365 -56.264789 33.635980 60.585908 31.366100 -7.125000 0.000000 0.000000 -124.422100 -81.249500 132.002500 -3.675587 1.245793 -1.357335 83.057009 14.515889 75.082441 -99.033128 60.037021 -67.504840 0.847596 -0.174583 -36.723744 -27.521447 9.814172 -5.551700 7.125000 0.000000 0.000000 -0.735200 -18.126800 -0.470000 
